<?xml version="1.0" encoding="UTF-8" standalone="no"?>
<!-- Created with Inkscape (http://www.inkscape.org/) -->

<svg
   xmlns:dc="http://purl.org/dc/elements/1.1/"
   xmlns:cc="http://creativecommons.org/ns#"
   xmlns:rdf="http://www.w3.org/1999/02/22-rdf-syntax-ns#"
   xmlns:svg="http://www.w3.org/2000/svg"
   xmlns="http://www.w3.org/2000/svg"
   xmlns:xlink="http://www.w3.org/1999/xlink"
   xmlns:sodipodi="http://sodipodi.sourceforge.net/DTD/sodipodi-0.dtd"
   xmlns:inkscape="http://www.inkscape.org/namespaces/inkscape"
   width="24"
   height="24"
   viewBox="0 0 6.3499999 6.3500002"
   version="1.1"
   id="svg8"
   inkscape:version="0.92.3 (2405546, 2018-03-11)"
   sodipodi:docname="JED(edit).svg">
  <defs
     id="defs2">
    <linearGradient
       inkscape:collect="always"
       id="linearGradient8510">
      <stop
         style="stop-color:#5b1475;stop-opacity:1"
         offset="0"
         id="stop8506" />
      <stop
         style="stop-color:#001a8c;stop-opacity:1"
         offset="1"
         id="stop8508" />
    </linearGradient>
    <linearGradient
       inkscape:collect="always"
       xlink:href="#linearGradient8510"
       id="linearGradient8512"
       x1="131.40039"
       y1="100.25311"
       x2="38.118389"
       y2="195.09177"
       gradientUnits="userSpaceOnUse"
       gradientTransform="matrix(0.04550533,0,0,0.04550533,-1.5937741,-3.0847429)" />
  </defs>
  <sodipodi:namedview
     id="base"
     pagecolor="#ffffff"
     bordercolor="#666666"
     borderopacity="1.0"
     inkscape:pageopacity="0.0"
     inkscape:pageshadow="2"
     inkscape:zoom="20.48"
     inkscape:cx="-1.6205647"
     inkscape:cy="4.4033039"
     inkscape:document-units="mm"
     inkscape:current-layer="layer1"
     showgrid="false"
     units="px"
     inkscape:window-width="1920"
     inkscape:window-height="1015"
     inkscape:window-x="0"
     inkscape:window-y="0"
     inkscape:window-maximized="1" />
  <metadata
     id="metadata5">
    <rdf:RDF>
      <cc:Work
         rdf:about="">
        <dc:format>image/svg+xml</dc:format>
        <dc:type
           rdf:resource="http://purl.org/dc/dcmitype/StillImage" />
        <dc:title></dc:title>
      </cc:Work>
    </rdf:RDF>
  </metadata>
  <g
     inkscape:label="Ebene 1"
     inkscape:groupmode="layer"
     id="layer1">
    <path
       style="fill:url(#linearGradient8512);fill-opacity:1;stroke:#ffffff;stroke-width:0.02275268;stroke-miterlimit:4;stroke-dasharray:none;stroke-opacity:1"
       d="M 3.2139839,6.0744068 C 2.9277991,6.0508068 2.7175694,6.0097068 2.4799568,5.9307268 2.2848423,5.8658268 2.0301079,5.7448571 1.8644782,5.6385171 l -0.1154097,-0.0741 -0.1073295,0.0364 c -0.3041794,0.10281 -0.93741318,0.19207 -1.36398408,0.19222 l -0.1369387,4e-5 0.1850986,-0.18992 c 0.2670859,-0.27408 0.4402256,-0.49382 0.5602493,-0.71107 0.08398,-0.15199 0.086354,-0.16597 0.040731,-0.24012 -0.1224638,-0.19904 -0.2644279,-0.57662 -0.3186333,-0.84748 -0.077469,-0.38711 -0.075055,-0.80999 0.00679,-1.18948 0.086778,-0.40236 0.3000955,-0.84173 0.57016688,-1.17436 0.1596315,-0.19662 0.4224548,-0.43921 0.6312646,-0.58270009 0.1319287,-0.0906 0.1429185,-0.0823 0.047277,0.0364 C 1.6401301,1.1715271 1.4439847,1.5529671 1.3602477,1.8734471 c -0.083365,0.31907 -0.088948,0.56687 -0.018997,0.84263 0.086529,0.34111 0.3293958,0.68733 0.5925476,0.84472 0.3121587,0.18669 0.5849129,0.17233 0.799808,-0.0422 0.095083,-0.0949 0.1633057,-0.2254 0.2122195,-0.40595 0.029381,-0.10845 0.032176,-0.13784 0.031938,-0.33558 -2.275e-4,-0.20343 -0.00254,-0.22533 -0.037475,-0.35724 -0.062251,-0.23507 -0.1665701,-0.45604 -0.2758508,-0.58434 -0.065419,-0.0768 -0.2113619,-0.18821 -0.320299,-0.24451 -0.044674,-0.0231 -0.081245,-0.0466 -0.08127,-0.052 -4.55e-5,-0.0107 0.3235114,-0.36922 0.3328445,-0.36922 0.015692,0 0.1043336,0.0528 0.1709812,0.10195 0.1093523,0.0804 0.1765101,0.14461 0.2558278,0.24401 l 0.069477,0.0872 -0.00616,-0.045 c -0.030051,-0.21938 -0.09126,-0.39392 -0.1966901,-0.56085001 -0.027758,-0.0438 -0.048655,-0.0849 -0.046432,-0.0913 0.00482,-0.0136 0.4723646,-0.54587 0.4979591,-0.56709 0.024233,-0.0201 0.022057,-0.0223 0.2744573,0.26511 0.1192481,0.13575 0.2267513,0.25797 0.2388952,0.27164 0.021642,0.0244 0.020633,0.0275 -0.050779,0.16521001 -0.084407,0.16264 -0.137184,0.30993 -0.1622184,0.4526601 -0.00974,0.0555 -0.017697,0.10336 -0.017697,0.10645 0,0.003 0.02085,-0.0207 0.046332,-0.0528 0.075849,-0.0953 0.2295727,-0.2347001 0.3402881,-0.3083501 0.057025,-0.038 0.1068454,-0.0691 0.1107117,-0.0691 0.010336,0 0.3334255,0.3614901 0.3334255,0.3730701 0,0.005 -0.01619,0.0154 -0.035975,0.0225 -0.063772,0.0222 -0.2081323,0.1232 -0.2932315,0.20509 -0.1526493,0.14688 -0.2374262,0.29253 -0.3074139,0.52811 -0.1430553,0.48155 -0.075943,0.97168 0.1670628,1.22014 0.1498062,0.15317 0.3413043,0.2108 0.5362582,0.1614 0.4157304,-0.10528 0.7815105,-0.56485 0.8923747,-1.12109 0.031132,-0.1562 0.028262,-0.44001 -0.00609,-0.60227 -0.073618,-0.34777 -0.2509564,-0.6989201 -0.5250679,-1.03967011 -0.1028385,-0.12786 -0.099757,-0.15505 0.00868,-0.0766 0.7806875,0.56446001 1.1332451,1.12088011 1.2691303,2.00302011 0.028832,0.18717 0.028642,0.56414 -3.639e-4,0.76453 -0.1206735,0.83321 -0.4868116,1.48654 -1.0865608,1.93886 -0.350351,0.26423 -0.8142145,0.4459297 -1.2870094,0.5041397 -0.1474958,0.0182 -0.4742813,0.0317 -0.5718978,0.0237 z"
       id="path8504"
       inkscape:connector-curvature="0" />
  </g>
</svg>
